<mxfile host="app.diagrams.net" agent="Mozilla/5.0 (X11; Ubuntu; Linux x86_64; rv:129.0) Gecko/20100101 Firefox/129.0" version="24.7.7">
  <diagram name="Página-1" id="P5c0FWFeJ3ZNZE-DL25P">
    <mxGraphModel dx="880" dy="484" grid="1" gridSize="10" guides="1" tooltips="1" connect="1" arrows="1" fold="1" page="1" pageScale="1" pageWidth="827" pageHeight="1169" math="0" shadow="0">
      <root>
        <mxCell id="0" />
        <mxCell id="1" parent="0" />
        <mxCell id="ef4U0fE2WmG1Bs9EdzK9-7" style="edgeStyle=orthogonalEdgeStyle;rounded=0;orthogonalLoop=1;jettySize=auto;html=1;entryX=0.5;entryY=1;entryDx=0;entryDy=0;" edge="1" parent="1" source="ef4U0fE2WmG1Bs9EdzK9-4" target="ef4U0fE2WmG1Bs9EdzK9-5">
          <mxGeometry relative="1" as="geometry" />
        </mxCell>
        <mxCell id="ef4U0fE2WmG1Bs9EdzK9-15" style="edgeStyle=orthogonalEdgeStyle;rounded=0;orthogonalLoop=1;jettySize=auto;html=1;exitX=0.25;exitY=0;exitDx=0;exitDy=0;entryX=1;entryY=0.5;entryDx=0;entryDy=0;" edge="1" parent="1" source="ef4U0fE2WmG1Bs9EdzK9-4" target="ef4U0fE2WmG1Bs9EdzK9-8">
          <mxGeometry relative="1" as="geometry" />
        </mxCell>
        <mxCell id="ef4U0fE2WmG1Bs9EdzK9-17" style="edgeStyle=orthogonalEdgeStyle;rounded=0;orthogonalLoop=1;jettySize=auto;html=1;entryX=1;entryY=0.5;entryDx=0;entryDy=0;" edge="1" parent="1" source="ef4U0fE2WmG1Bs9EdzK9-4" target="ef4U0fE2WmG1Bs9EdzK9-9">
          <mxGeometry relative="1" as="geometry" />
        </mxCell>
        <mxCell id="ef4U0fE2WmG1Bs9EdzK9-18" style="edgeStyle=orthogonalEdgeStyle;rounded=0;orthogonalLoop=1;jettySize=auto;html=1;exitX=0;exitY=0.75;exitDx=0;exitDy=0;" edge="1" parent="1" source="ef4U0fE2WmG1Bs9EdzK9-4" target="ef4U0fE2WmG1Bs9EdzK9-12">
          <mxGeometry relative="1" as="geometry" />
        </mxCell>
        <mxCell id="ef4U0fE2WmG1Bs9EdzK9-22" style="edgeStyle=orthogonalEdgeStyle;rounded=0;orthogonalLoop=1;jettySize=auto;html=1;exitX=1;exitY=0.5;exitDx=0;exitDy=0;entryX=0;entryY=0.5;entryDx=0;entryDy=0;" edge="1" parent="1" source="ef4U0fE2WmG1Bs9EdzK9-4" target="ef4U0fE2WmG1Bs9EdzK9-14">
          <mxGeometry relative="1" as="geometry" />
        </mxCell>
        <mxCell id="ef4U0fE2WmG1Bs9EdzK9-23" style="edgeStyle=orthogonalEdgeStyle;rounded=0;orthogonalLoop=1;jettySize=auto;html=1;exitX=1;exitY=0;exitDx=0;exitDy=0;entryX=0;entryY=1;entryDx=0;entryDy=0;" edge="1" parent="1" source="ef4U0fE2WmG1Bs9EdzK9-4" target="ef4U0fE2WmG1Bs9EdzK9-13">
          <mxGeometry relative="1" as="geometry" />
        </mxCell>
        <mxCell id="ef4U0fE2WmG1Bs9EdzK9-24" style="edgeStyle=orthogonalEdgeStyle;rounded=0;orthogonalLoop=1;jettySize=auto;html=1;exitX=1;exitY=1;exitDx=0;exitDy=0;entryX=0;entryY=0.5;entryDx=0;entryDy=0;" edge="1" parent="1" source="ef4U0fE2WmG1Bs9EdzK9-4" target="ef4U0fE2WmG1Bs9EdzK9-10">
          <mxGeometry relative="1" as="geometry" />
        </mxCell>
        <mxCell id="ef4U0fE2WmG1Bs9EdzK9-25" style="edgeStyle=orthogonalEdgeStyle;rounded=0;orthogonalLoop=1;jettySize=auto;html=1;exitX=0;exitY=1;exitDx=0;exitDy=0;entryX=1;entryY=0.5;entryDx=0;entryDy=0;" edge="1" parent="1" source="ef4U0fE2WmG1Bs9EdzK9-4" target="ef4U0fE2WmG1Bs9EdzK9-11">
          <mxGeometry relative="1" as="geometry" />
        </mxCell>
        <mxCell id="ef4U0fE2WmG1Bs9EdzK9-4" value="&lt;div&gt;Cliente&lt;/div&gt;" style="whiteSpace=wrap;html=1;align=center;labelPosition=center;verticalLabelPosition=middle;verticalAlign=middle;" vertex="1" parent="1">
          <mxGeometry x="360" y="240" width="100" height="40" as="geometry" />
        </mxCell>
        <mxCell id="ef4U0fE2WmG1Bs9EdzK9-5" value="&lt;div&gt;Còdigo&lt;/div&gt;" style="ellipse;whiteSpace=wrap;html=1;align=center;fontStyle=4;" vertex="1" parent="1">
          <mxGeometry x="364" y="150" width="100" height="40" as="geometry" />
        </mxCell>
        <mxCell id="ef4U0fE2WmG1Bs9EdzK9-8" value="&lt;div&gt;Tipo doc.&lt;/div&gt;" style="ellipse;whiteSpace=wrap;html=1;align=center;" vertex="1" parent="1">
          <mxGeometry x="250" y="170" width="100" height="40" as="geometry" />
        </mxCell>
        <mxCell id="ef4U0fE2WmG1Bs9EdzK9-9" value="Num. Documento" style="ellipse;whiteSpace=wrap;html=1;align=center;" vertex="1" parent="1">
          <mxGeometry x="220" y="220" width="100" height="40" as="geometry" />
        </mxCell>
        <mxCell id="ef4U0fE2WmG1Bs9EdzK9-10" value="&lt;div&gt;Nombre&lt;br&gt;&lt;/div&gt;" style="ellipse;whiteSpace=wrap;html=1;align=center;" vertex="1" parent="1">
          <mxGeometry x="490" y="290" width="100" height="40" as="geometry" />
        </mxCell>
        <mxCell id="ef4U0fE2WmG1Bs9EdzK9-11" value="&lt;div&gt;Apellido&lt;/div&gt;" style="ellipse;whiteSpace=wrap;html=1;align=center;" vertex="1" parent="1">
          <mxGeometry x="230" y="320" width="100" height="40" as="geometry" />
        </mxCell>
        <mxCell id="ef4U0fE2WmG1Bs9EdzK9-12" value="&lt;div&gt;Domicilio&lt;/div&gt;" style="ellipse;whiteSpace=wrap;html=1;align=center;" vertex="1" parent="1">
          <mxGeometry x="220" y="270" width="100" height="40" as="geometry" />
        </mxCell>
        <mxCell id="ef4U0fE2WmG1Bs9EdzK9-13" value="Telèfono" style="ellipse;whiteSpace=wrap;html=1;align=center;" vertex="1" parent="1">
          <mxGeometry x="460" y="180" width="100" height="40" as="geometry" />
        </mxCell>
        <mxCell id="ef4U0fE2WmG1Bs9EdzK9-14" value="Fecha nac." style="ellipse;whiteSpace=wrap;html=1;align=center;" vertex="1" parent="1">
          <mxGeometry x="500" y="240" width="100" height="40" as="geometry" />
        </mxCell>
      </root>
    </mxGraphModel>
  </diagram>
</mxfile>
